<?xml version="1.0" encoding="UTF-8" standalone="no"?><!DOCTYPE svg PUBLIC "-//W3C//DTD SVG 1.1//EN" "http://www.w3.org/Graphics/SVG/1.1/DTD/svg11.dtd"><svg width="100%" height="100%" viewBox="0 0 100 100" version="1.1" xmlns="http://www.w3.org/2000/svg" xmlns:xlink="http://www.w3.org/1999/xlink" xml:space="preserve" xmlns:serif="http://www.serif.com/" style="fill-rule:evenodd;clip-rule:evenodd;stroke-linejoin:round;stroke-miterlimit:1.41421;"><g><path d="M10.292,25.855l-0.292,35.884c0,0 4.3,14.569 17.163,14.569l31.848,0l-0.292,-38.722c0,0 -1.512,-13.586 -16.379,-13.586l-16.78,0l7.233,9.476l11.314,0c0,0 5.758,1.855 5.758,8.13c-0.019,8.475 -0.11,17.078 -0.201,25.608l-22.829,0c0,0 -7.634,0.036 -7.834,-7.821c-0.201,-7.821 0.2,-24.444 0.2,-24.444l-8.909,-9.094Z" style="fill:#fff;"/><path d="M71.244,24.187l-7.837,9.044l18.154,0l8.439,-9.231l-18.756,0.187Z" style="fill:#fff;"/></g></svg>