<?xml version="1.0" encoding="UTF-8" standalone="no"?><!DOCTYPE svg PUBLIC "-//W3C//DTD SVG 1.1//EN" "http://www.w3.org/Graphics/SVG/1.1/DTD/svg11.dtd"><svg width="100%" height="100%" viewBox="0 0 800 200" version="1.1" xmlns="http://www.w3.org/2000/svg" xmlns:xlink="http://www.w3.org/1999/xlink" xml:space="preserve" xmlns:serif="http://www.serif.com/" style="fill-rule:evenodd;clip-rule:evenodd;stroke-linejoin:round;stroke-miterlimit:1.41421;"><path id="LTONetwork" d="M114.685,136l-45.946,0l0,-72.108l15.459,0l0,58.594l30.487,0l0,13.514Zm35.279,0l-15.459,0l0,-58.595l-21.082,0l0,-13.513l57.514,0l0,13.513l-20.973,0l0,58.595Zm66.09,1.297c-21.838,0 -37.73,-15.567 -37.73,-37.297c0,-21.73 15.892,-37.297 37.73,-37.297c21.73,0 37.622,15.567 37.622,37.297c0,21.73 -15.892,37.297 -37.622,37.297Zm0,-13.621c13.297,0 21.838,-10.271 21.838,-23.676c0,-13.514 -8.541,-23.676 -21.838,-23.676c-13.405,0 -21.946,10.162 -21.946,23.676c0,13.405 8.541,23.676 21.946,23.676Zm147.964,12.324l-14.811,0l-34.378,-47.027l0,47.027l-15.352,0l0,-72.108l15.784,0l33.406,45.297l0,-45.297l15.351,0l0,72.108Zm42.09,1.297c-15.892,0 -27.892,-10.702 -27.892,-27.459c0,-15.135 11.243,-27.352 27.027,-27.352c15.676,0 26.162,11.676 26.162,28.649l0,3.243l-38.81,0c0.973,6.379 6.162,11.676 15.027,11.676c4.432,0 10.486,-1.838 13.837,-5.081l6.163,9.081c-5.19,4.757 -13.406,7.243 -21.514,7.243Zm12.108,-32.432c-0.432,-4.973 -3.892,-11.135 -12.973,-11.135c-8.54,0 -12.216,5.946 -12.757,11.135l25.73,0Zm44.252,32.432c-9.621,0 -14.702,-4.973 -14.702,-14.378l0,-27.135l-8.649,0l0,-12l8.649,0l0,-14.27l13.729,0l0,14.27l10.595,0l0,12l-10.595,0l0,23.459c0,3.352 1.73,5.838 4.757,5.838c2.054,0 4,-0.757 4.757,-1.622l2.919,10.487c-2.054,1.838 -5.73,3.351 -11.46,3.351Zm83.172,-1.297l-14.703,0l-11.027,-35.568l-11.027,35.568l-14.703,0l-15.892,-52.216l14.271,0l9.729,35.135l11.46,-35.135l12.216,0l11.459,35.135l9.73,-35.135l14.379,0l-15.892,52.216Zm50.522,1.297c-17.189,0 -27.567,-12.648 -27.567,-27.459c0,-14.811 10.378,-27.352 27.567,-27.352c17.297,0 27.676,12.541 27.676,27.352c0,14.811 -10.379,27.459 -27.676,27.459Zm0,-12.216c8.649,0 13.406,-7.027 13.406,-15.243c0,-8.108 -4.757,-15.135 -13.406,-15.135c-8.54,0 -13.297,7.027 -13.297,15.135c0,8.216 4.757,15.243 13.297,15.243Zm55.279,10.919l-13.729,0l0,-52.216l13.729,0l0,7.027c3.784,-4.541 10.163,-8.325 16.649,-8.325l0,13.406c-0.973,-0.216 -2.162,-0.324 -3.784,-0.324c-4.54,0 -10.594,2.594 -12.865,5.946l0,34.486Zm79.82,0l-17.189,0l-13.838,-20.108l-6.27,6.703l0,13.405l-13.73,0l0,-72.108l13.73,0l0,43.135l19.784,-23.243l16.865,0l-20.649,23.675l21.297,28.541Z" style="fill:#313a66;fill-rule:nonzero;"/></svg>