<?xml version="1.0" encoding="UTF-8" standalone="no"?><!DOCTYPE svg PUBLIC "-//W3C//DTD SVG 1.1//EN" "http://www.w3.org/Graphics/SVG/1.1/DTD/svg11.dtd"><svg width="100%" height="100%" viewBox="0 0 690 600" version="1.1" xmlns="http://www.w3.org/2000/svg" xmlns:xlink="http://www.w3.org/1999/xlink" xml:space="preserve" xmlns:serif="http://www.serif.com/" style="fill-rule:evenodd;clip-rule:evenodd;stroke-linejoin:round;stroke-miterlimit:1.41421;"><g id="Layer-1" serif:id="Layer 1"><path d="M389.712,110.677l-42.291,42.293l8.561,8.562c4.814,4.813 12.625,4.81 17.436,0l42.293,-42.293l-8.562,-8.562c-2.407,-2.408 -5.563,-3.61 -8.718,-3.61c-3.157,0 -6.311,1.204 -8.719,3.61Zm-106.98,0l-8.563,8.562l42.295,42.293c4.811,4.81 12.62,4.813 17.435,0l8.562,-8.562l-42.293,-42.293c-2.406,-2.406 -5.562,-3.61 -8.719,-3.61c-3.155,0 -6.311,1.202 -8.717,3.61Zm146.807,55.333l-79.913,79.913l16.179,16.178c9.094,9.094 23.853,9.091 32.944,0l79.913,-79.913l-16.18,-16.178c-4.547,-4.548 -10.51,-6.82 -16.472,-6.82c-5.962,0 -11.926,2.274 -16.471,6.82Zm-202.14,0l-16.179,16.178l79.913,79.913c9.089,9.091 23.849,9.094 32.943,0l16.178,-16.178l-79.911,-79.913c-4.545,-4.546 -10.509,-6.818 -16.472,-6.82c-5.963,0 -11.924,2.272 -16.472,6.82Zm108.824,-1.844l-8.563,8.563l17.28,17.28l17.28,-17.28l-8.562,-8.563c-2.406,-2.406 -5.561,-3.61 -8.718,-3.61c-3.155,0 -6.311,1.204 -8.717,3.61Zm149.312,79.649l-132.809,132.807l26.889,26.887c15.115,15.115 39.642,15.108 54.75,0l132.807,-132.807l-26.887,-26.887c-7.557,-7.558 -17.465,-11.336 -27.374,-11.335c-9.909,0 -19.821,3.78 -27.376,11.335Zm-335.94,0l-26.887,26.887l132.808,132.807c15.107,15.108 39.635,15.115 54.749,0l26.889,-26.887l-132.809,-132.807c-7.555,-7.555 -17.467,-11.335 -27.376,-11.335c-9.909,-0.001 -19.817,3.777 -27.374,11.335Zm178.873,23.264l-16.178,16.178l32.65,32.652l32.65,-32.652l-16.177,-16.178c-4.546,-4.545 -10.51,-6.818 -16.473,-6.818c-5.963,-0.002 -11.924,2.272 -16.472,6.818Zm-10.903,144.705l-26.887,26.889l54.262,54.26l54.262,-54.26l-26.886,-26.889c-7.555,-7.555 -17.467,-11.333 -27.376,-11.333c-9.909,-0.001 -19.817,3.776 -27.375,11.333Z" style="fill:url(#_Linear1);fill-rule:nonzero;"/></g><defs><linearGradient id="_Linear1" x1="0" y1="0" x2="1" y2="0" gradientUnits="userSpaceOnUse" gradientTransform="matrix(368.674,0,0,368.674,162.365,300.001)"><stop offset="0" style="stop-color:#7cb7ff;stop-opacity:1"/><stop offset="1" style="stop-color:#ba6df6;stop-opacity:1"/></linearGradient></defs></svg>