<svg xmlns="http://www.w3.org/2000/svg" width="100" height="100" viewBox="0 0 100 100">
  <g fill="#9867D0" fill-rule="evenodd" transform="translate(10 24)">
    <path d="M0.291515176,1.85514069 L0,37.7393817 C0,37.7393817 4.29984885,52.3076923 17.1629559,52.3076923 L49.010989,52.3076923 L48.7194738,13.5861774 C48.7194738,13.5861774 47.2072388,0 32.3399648,0 L15.5596225,0 L22.7928429,9.47576764 L34.1072756,9.47576764 C34.1072756,9.47576764 39.8647003,11.3309083 39.8647003,17.6056489 C39.8464806,26.0810956 39.7553822,34.6838558 39.6642836,43.2138655 L16.8350014,43.2138655 C16.8350014,43.2138655 9.20094774,43.2502407 9.00053106,35.3931744 C8.80011437,27.5724832 9.20094774,10.9489676 9.20094774,10.9489676 L0.291515176,1.85514069 Z"/>
    <polygon points="61.244 .187 53.407 9.231 71.561 9.231 80 0"/>
  </g>
</svg>
