<svg xmlns="http://www.w3.org/2000/svg" viewBox="71 -20.1 162.5 60.1" width="100%" height="100%">
<path fill="#3f72da" d="M87.5 27.6l-4.4 10.2c-1 2.2-1 2.2-3.3 2.2H74c-2.2 0-3-.4-3-1.7 0-.5 0-.6.6-1.9l22.9-54c.2-.2.3-.4.4-.7.5-1.4.8-1.5 3.1-1.5h3.7c2.3 0 2.6.1 3.1 1.5l.3.8 22.3 54c.3.9.5 1.5.5 1.9 0 1.2-.8 1.7-3 1.7H119c-2.5 0-2.5 0-3.3-2.3l-4.1-10.1H87.5v-.1zM99.7-2.7l-8.5 21.1H108L99.7-2.7zM156.3-17.8c1-2.3 1-2.3 3.3-2.3h6.1c2.2 0 3 .4 3 1.7 0 .4-.1.8-.6 1.9l-22.9 54.2c-1 2.3-1 2.3-3.3 2.3h-1.3c-2.4 0-2.4 0-3.3-2.3l-22.5-54.2c-.5-1.1-.6-1.5-.6-1.9 0-1.2.8-1.7 3-1.7h6.1c2.5 0 2.5 0 3.3 2.3l14.8 37.1 14.9-37.1zM214.4 36.2c1 1.2 1.1 1.6 1.1 2.2 0 1.2-.8 1.7-3.1 1.7h-7c-2.2 0-2.3 0-3-1.1-.2-.3-.4-.4-.4-.7l-14.6-21.7h-4.2v20.6c0 2.7-.3 3-3 3h-5.4c-2.7 0-3-.3-3-3v-54c0-2.7.3-3 3-3h16.7c6.5 0 11.7 1.9 14.9 4.6 3.6 3 5.8 8.9 5.8 14.1 0 5.3-2 10.1-5.3 12.9-2.3 1.9-4.4 3-8.1 3.7l15.6 20.7zM189.2 8.4c7.2 0 11.2-3.2 11.2-9s-2.1-10.2-11-10.2h-6.2V8.3l6 .1zM233.5 34c0 3.4-2.7 6-6 6-3.4 0-6-2.7-6-6s2.8-6 6-6c3.4 0 6 2.7 6 6"></path></svg>