<svg xmlns="http://www.w3.org/2000/svg" width="105" height="100" viewBox="0 0 105 100">
  <g fill-rule="evenodd">
    <g transform="translate(16.15)">
      <path d="M67.9648033,12.1573499 L68.378882,14.6625259 C68.4037267,14.8095238 68.8322981,17.4782609 68.8322981,21.7018634 C68.83134,26.9028354 68.2057422,32.08487 66.9689441,37.136646 C65.2934948,44.0007391 62.3750963,50.4999474 58.3581781,56.3126294 C53.7163561,62.9875776 47.0062112,69.563147 37.2256729,74.8302277 L36.0248447,75.4658385 L34.8281573,74.8198758 C25.047619,69.5445135 18.3374741,62.9792961 13.6956522,56.3022774 C9.67881555,50.4895493 6.76042404,43.9903567 5.08488613,37.126294 C3.84808793,32.074518 3.22249021,26.8924834 3.22153209,21.6915114 C3.22153209,17.4699793 3.65010352,14.7991718 3.67494824,14.6521739 L4.08902692,12.1469979 C4.18037743,11.5922377 3.96882772,11.0308832 3.53406654,10.6743912 C3.09930534,10.3178992 2.50738323,10.2204294 1.98127151,10.4186976 C1.45515979,10.6169659 1.07478737,11.0808505 0.983436853,11.6356108 L0.569358178,14.1407867 C0.52173913,14.4285714 0.0745341615,17.2567288 0.0724637681,21.6915114 C0.0753281277,27.146013 0.733600652,32.5804108 2.03312629,37.8778468 C3.80057325,45.1141373 6.87825087,51.9655836 11.1138716,58.0931677 C16.0124224,65.1449275 23.1221532,72.0766046 33.3354037,77.5838509 L35.2774327,78.63147 C35.7425211,78.8828994 36.3030275,78.8828994 36.7681159,78.63147 L38.7101449,77.5838509 C48.9254658,72.0786749 56.0331263,65.1469979 60.931677,58.0952381 C65.1673795,51.9677002 68.2450642,45.1162381 70.0124224,37.8799172 C71.3121126,32.5818083 71.9703863,27.1467056 71.9730849,21.6915114 C71.9730849,17.2567288 71.5238095,14.426501 71.4782609,14.1407867 L71.0641822,11.6356108 C70.9724619,11.0808505 70.5917476,10.6171632 70.0654509,10.4192152 C69.5391545,10.2212672 68.9472323,10.3191317 68.5126559,10.675944 C68.0780797,11.0327563 67.8668718,11.5943081 67.9585921,12.1490683 L67.9648033,12.1573499 Z"/>
      <path d="M12.6666667,10.4554865 L36.0248447,3.32091097 L59.9026915,10.610766 C60.7328337,10.8640395 61.6111157,10.3963949 61.8643892,9.56625259 C62.1176627,8.73611029 61.650018,7.8578283 60.8198758,7.60455487 L36.4824017,0.175983437 C36.1835323,0.084398777 35.8640867,0.084398777 35.5652174,0.175983437 L11.7556936,7.44720497 C10.9255513,7.70047845 10.4579068,8.57876041 10.7111802,9.40890267 C10.9644536,10.2390449 11.8427356,10.7066895 12.6728778,10.4534161 L12.6666667,10.4554865 Z"/>
      <path d="M1.13457557,12.6190476 L34.6252588,77.9751553 C34.8917277,78.49576 35.4252631,78.8253155 36.0100776,78.8305331 C36.5948919,78.8357509 37.1342226,78.5157675 37.4099379,78 L57.8302277,39.8074534 L57.8612836,39.747412 L70.931677,12.5838509 C71.307871,11.8017334 70.978805,10.8627364 70.1966874,10.4865424 C69.4145698,10.1103485 68.4755729,10.4394146 68.0993789,11.2215321 L55.0434783,38.3436853 L36.0538302,73.8612836 L3.93374741,11.1863354 C3.68134323,10.6804155 3.17661516,10.3490874 2.61204474,10.3187055 C2.04747431,10.2883235 1.51010376,10.5635718 1.20486308,11.0394825 C0.899622402,11.5153931 0.873571843,12.118593 1.13664596,12.6190476 L1.13457557,12.6190476 Z"/>
      <path d="M17.1635611,41.7184265 L54.4016563,41.7184265 C55.2695323,41.7184265 55.9730849,41.0148739 55.9730849,40.1469979 C55.9730849,39.2791219 55.2695323,38.5755694 54.4016563,38.5755694 L17.1635611,38.5755694 C16.295685,38.5755694 15.5921325,39.2791219 15.5921325,40.1469979 C15.5921325,41.0148739 16.295685,41.7184265 17.1635611,41.7184265"/>
    </g>
    <path d="M12.7556936,88.5341615 L2.14699793,88.5341615 C1.76602721,88.5364226 1.45774755,88.8447021 1.45548654,89.2256729 L1.45548654,97.7412008 C1.45885902,98.1217064 1.76649242,98.4293398 2.14699793,98.4327122 L12.7556936,98.4327122 L12.7556936,99.8695816 L2.14699793,99.8695652 C1.58184539,99.8717772 1.03920143,99.6482499 0.639575182,99.2486236 C0.23994893,98.8489973 0.0164215676,98.3063534 0.0186335404,97.7412008 L0.0186335404,89.2256729 C0.0164215676,88.6605203 0.23994893,88.1178764 0.639575182,87.7182501 C1.03920143,87.3186238 1.58184539,87.0950965 2.14699793,87.0973085 L12.7556936,87.0972921 L12.7556936,88.5341615 Z"/>
    <polygon points="32.679 87.097 32.679 88.534 22.462 88.534 22.462 92.756 30.675 92.756 30.675 94.205 22.462 94.205 22.462 98.427 32.679 98.427 32.679 99.863 21.025 99.863 21.025 87.097"/>
    <path fill-rule="nonzero" d="M53.7163561,89.242236 L53.7163561,92.9855072 C53.7185681,93.5506598 53.4950408,94.0933037 53.0954145,94.49293 C52.6957882,94.8925563 52.1531443,95.1160836 51.5879917,95.1138716 L49.6376812,95.1138716 L53.6459627,99.8757764 L51.747412,99.8757764 L47.7556936,95.1138716 L43.0641822,95.1138716 C42.8326292,95.1022089 42.601824,95.0787139 42.3726708,95.0434783 L42.3726708,99.8695652 L40.9358178,99.8695652 L40.9358178,87.1138553 L51.5797101,87.1138716 C52.1448627,87.1116596 52.6875066,87.335187 53.0871329,87.7348133 C53.4867592,88.1344395 53.7102865,88.6770834 53.7080745,89.242236 L53.7163561,89.242236 Z M43.0641822,93.6604555 L51.5797101,93.6604555 C51.7593967,93.6627019 51.9323807,93.592313 52.0594482,93.4652453 C52.1865159,93.3381778 52.2569048,93.1651938 52.2546584,92.9855072 L52.2546584,89.242236 C52.2575849,89.0599207 52.1875147,88.8839996 52.0600414,88.7536232 C51.9372294,88.6198619 51.7633594,88.5445936 51.5817805,88.5465839 L43.0641822,88.5465839 C42.6832114,88.5488449 42.3749319,88.8571244 42.3726708,89.2380952 L42.3726708,92.9813665 C42.3704168,93.1629983 42.4457298,93.3369712 42.5797101,93.4596273 C42.7077934,93.5887431 42.8823147,93.6610874 43.0641822,93.6604555 Z"/>
    <polygon points="61.346 87.097 74.12 87.097 74.12 88.534 68.462 88.534 68.462 99.87 67.025 99.87 67.025 88.534 61.346 88.534"/>
    <polygon points="81.853 99.87 81.853 87.097 83.29 87.097 83.29 99.87"/>
    <polygon points="102.466 87.097 104.311 87.097 98.965 93.478 104.323 99.865 102.46 99.865 97.698 94.207 93.582 94.207 93.582 99.865 92.133 99.865 92.133 87.097 93.582 87.097 93.582 92.756 97.698 92.756"/>
  </g>
</svg>
