<?xml version="1.0" encoding="UTF-8"?>
<svg width="205px" height="97px" viewBox="0 0 205 97" version="1.1" xmlns="http://www.w3.org/2000/svg" xmlns:xlink="http://www.w3.org/1999/xlink">
    <!-- Generator: Sketch 51.3 (57544) - http://www.bohemiancoding.com/sketch -->
    <title>firm24</title>
    <desc>Created with Sketch.</desc>
    <defs>
        <linearGradient x1="-4.60114418%" y1="92.0595046%" x2="50.7157071%" y2="60.5950249%" id="linearGradient-1">
            <stop stop-color="#FFFFFF" offset="0%"></stop>
            <stop stop-color="#FB9068" offset="0%"></stop>
            <stop stop-color="#FB9874" offset="0%"></stop>
            <stop stop-color="#FC7B4C" offset="58.54%"></stop>
            <stop stop-color="#FC6B36" offset="100%"></stop>
        </linearGradient>
    </defs>
    <g id="Page-1" stroke="none" stroke-width="1" fill="none" fill-rule="evenodd">
        <g id="firm24" transform="translate(0.000000, 1.000000)" fill-rule="nonzero">
            <g id="beeld" transform="translate(112.000000, 0.000000)">
                <g id="vlag">
                    <path d="M7.1,43.3 C7.4,43 6.5,44 6.3,44.3 C5.9,44.8 5.5,45.4 5.2,46 C2.9,50.1 2.3,55.1 4.7,61.2 C6.5,65.9 12.5,70.6 21.5,75.3 C27.8,78.6 33.6,80.9 42.4,84.2 C54.8,88.8 61.5,90 72.6,88.5 C80.6,87.4 85.5,84.8 88.5,79.1 C92.3,71.7 92.3,59.3 87.8,40.5 C83.4,21.7 78,10.6 71.7,5.3 C66.9,1.3 62.1,0.8 55.5,2.4 C46.4,4.7 37.5,10.8 26.8,21.1 C25.5,22.4 24,23.9 22.5,25.5 C21.5,26.6 20.5,27.7 19.4,28.8 C16.5,32 13.6,35.4 10.8,38.8 C9.8,40 8.9,41.1 8.1,42.1 C7.8,42.4 7.6,42.8 7.4,43 C7.2,43.1 7.1,43.2 7.1,43.3 Z M6.3,42.7 C6.3,42.7 17.2,29 26.1,20.4 C35,11.8 44.6,4.1 55.2,1.4 C65.8,-1.3 79.1,-0.7 88.9,40.1 C98.7,80.9 86,87.6 72.8,89.4 C59.6,91.2 51.5,88.6 42.1,85.1 C32.7,81.6 8.1,72.5 3.8,61.5 C-0.5,50.5 5.2,44.1 6.3,42.7 Z" id="lijn" stroke="#FC6A36" fill="#FD6A35"></path>
                    <path d="M8.2,33.4 C8.2,33.4 22.1,22.7 32.7,16.5 C43.3,10.3 54.6,5.1 65.5,5.1 C76.4,5.1 89.2,8.9 88.8,51 C88.4,93.1 74.5,96.5 61.3,95 C48.1,93.5 40.9,89 32.6,83.3 C24.3,77.6 2.8,62.9 1.2,51.1 C-0.4,39.3 6.8,34.5 8.2,33.4 Z" id="vlak" fill="url(#linearGradient-1)"></path>
                </g>
                <g id="letters" transform="translate(21.899994, 34.000000)" fill="#FFFFFF">
                    <path d="M49.1,30 L49.1,24 L53.1,24 L53.1,18 L49.1,18 L49.1,0 L40.9,0 L28.1,18.8 L28.1,24 L43.1,24 L43.1,30 L49.1,30 Z M43.1,18 L35.3,18 L43.1,5.7 L43.1,18 Z" id="_x34_"></path>
                    <path d="M23.1,30 L23.1,24.5 L11.3,24.5 C19,18.9 23.1,14.5 23.1,9.5 C23.1,3.6 18.1,0.1 11.8,0.1 C7.7,0 3.3,1.5 0.4,4.8 L4,9 C6,6.9 8.6,5.6 12,5.6 C14.4,5.6 16.8,6.9 16.8,9.5 C16.8,13.1 13.3,16.2 1.2,25.1 L1.2,30 L23.1,30 Z" id="_x32_"></path>
                </g>
            </g>
            <path d="M6,64 L6,52 L20,52 L20,46 L6,46 L6,40 L21,40 L21,34 L0,34 L0,64 L6,64 Z M33,64 L33,34 L27,34 L27,64 L33,64 Z M63.3,64 L56.6,52.6 C59.8,51.8 63.2,49 63.1,43.7 C63.2,38.1 59.4,34 53.1,34 L39,34 L39,64 L45,64 L45,54 L50.1,54 L56,64 L63.3,64 Z M45,48 L45,40 L52.1,40 C54.7,40 56.6,41.5 56.6,44 C56.6,46.5 54.7,48 52.1,48 L45,48 Z M101,64 L101,34 L92.5,34 L85.2,52.1 L78,34 L69,34 L69,64 L75,64 L75,43 L83.8,64 L86.6,64 L95,43 L95,64 L101,64 Z" id="FIRM" fill="#383434"></path>
        </g>
    </g>
</svg>