<svg xmlns="http://www.w3.org/2000/svg" width="270" height="145" viewBox="0 0 270 145">
  <path fill="#364F67" fill-rule="evenodd" d="M55,95.3974359 L55,52.3141026 L68.7606838,52.3141026 C78.3333333,52.3141026 84.6153846,56.5923077 84.6153846,65.6307692 L84.6153846,65.8717949 C84.6153846,74.9705128 78.0940171,79.0076923 68.9401709,79.0076923 L62.957265,79.0076923 L62.957265,95.3974359 L55,95.3974359 Z M62.957265,73.2230769 L68.7606838,73.2230769 C74.025641,73.2230769 76.8376068,70.6320513 76.8376068,65.8717949 L76.8376068,65.6307692 C76.8376068,60.5089744 73.8461538,58.5205128 68.7606838,58.5205128 L62.957265,58.5205128 L62.957265,73.2230769 Z M92.8319088,95.3974359 L92.8319088,63.8833333 L100.071225,63.8833333 L100.071225,69.7884615 C102.045584,65.8115385 104.977208,63.4615385 110.242165,63.4012821 L110.242165,70.2102564 C103.900285,70.2705128 100.071225,72.3192308 100.071225,79.0076923 L100.071225,95.3974359 L92.8319088,95.3974359 Z M131.980057,90.3358974 C137.364672,90.3358974 140.595442,86.2987179 140.595442,79.8512821 L140.595442,79.4294872 C140.595442,72.9217949 137.364672,68.9448718 131.980057,68.9448718 C126.595442,68.9448718 123.304843,72.8615385 123.304843,79.3692308 L123.304843,79.8512821 C123.304843,86.2987179 126.475783,90.3358974 131.980057,90.3358974 Z M131.920228,96 C122.706553,96 115.88604,89.5525641 115.88604,79.9717949 L115.88604,79.4897436 C115.88604,69.7282051 122.766382,63.2205128 131.980057,63.2205128 C141.133903,63.2205128 148.014245,69.6679487 148.014245,79.3089744 L148.014245,79.7910256 C148.014245,89.6128205 141.133903,96 131.920228,96 Z M160.558405,90.3358974 C165.94302,90.3358974 169.173789,86.2987179 169.173789,79.8512821 L169.173789,79.4294872 C169.173789,72.9217949 165.94302,68.9448718 160.558405,68.9448718 C155.173789,68.9448718 151.883191,72.8615385 151.883191,79.3692308 L151.883191,79.8512821 C151.883191,86.2987179 155.054131,90.3358974 160.558405,90.3358974 Z M160.498575,96 C151.2849,96 144.464387,89.5525641 144.464387,79.9717949 L144.464387,79.4897436 C144.464387,69.7282051 151.344729,63.2205128 160.558405,63.2205128 C169.712251,63.2205128 176.592593,69.6679487 176.592593,79.3089744 L176.592593,79.7910256 C176.592593,89.6128205 169.712251,96 160.498575,96 Z M186.364672,95.3974359 L186.364672,69.3666667 L182.116809,69.3666667 L182.116809,63.8833333 L186.364672,63.8833333 L186.364672,59.6653846 C186.364672,52.7358974 190.133903,49 196.774929,49 C198.569801,49 199.586895,49.1807692 200.723647,49.5423077 L200.723647,55.2064103 C199.88604,54.8448718 198.988604,54.724359 197.672365,54.724359 C194.80057,54.724359 193.603989,56.6525641 193.603989,59.3641026 L193.603989,63.8833333 L200.723647,63.8833333 L200.723647,69.3666667 L193.603989,69.3666667 L193.603989,95.3974359 L186.364672,95.3974359 Z M208.162393,95.3974359 L208.162393,63.8833333 L215.401709,63.8833333 L215.401709,95.3974359 L208.162393,95.3974359 Z M211.692308,58.7012821 C209.299145,58.7012821 207.384615,56.8935897 207.384615,54.5435897 C207.384615,52.1333333 209.299145,50.325641 211.692308,50.325641 C214.08547,50.325641 216,52.1333333 216,54.5435897 C216,56.8935897 214.08547,58.7012821 211.692308,58.7012821 Z"/>
</svg>
