<svg xmlns="http://www.w3.org/2000/svg" preserveAspectRatio="xMidYMid" width="212" height="36" viewBox="0 0 212 36">
	<title>Digital signature - SignRequest</title>
	<path fill="#3f72da" d="M208.405 27.453c.337.327.93.491 1.779.491.652 0 1.258-.125 1.818-.374v2.164c-.674.249-1.347.373-2.02.373h-.078c-.424 0-.839-.046-1.242-.14-.404-.093-.86-.277-1.368-.553-.507-.274-.916-.736-1.227-1.385-.311-.648-.466-1.45-.466-2.405v-9.573h-2.765v-2.101h2.765v-4.499h2.299v4.499h4.102v2.101h-4.102v9.698c0 .809.169 1.377.505 1.704zm-13.025 2.654c-1.761 0-3.361-.399-4.801-1.198v-2.432c1.523.936 3.092 1.404 4.708 1.404 2.413 0 3.619-.733 3.619-2.2 0-.791-.29-1.41-.87-1.857-.58-.447-1.289-.783-2.128-1.007-.839-.223-1.678-.468-2.517-.733-.839-.266-1.551-.713-2.136-1.343-.585-.629-.878-1.454-.878-2.473 0-1.27.464-2.354 1.391-3.252.927-.897 2.343-1.347 4.249-1.347 1.357 0 2.713.323 4.07.967v2.29c-1.212-.728-2.486-1.093-3.822-1.093-2.392 0-3.588.812-3.588 2.435 0 .552.29.996.87 1.334.58.338 1.289.619 2.128.843.839.224 1.678.492 2.517.804.839.312 1.551.84 2.136 1.584.585.744.878 1.693.878 2.848 0 1.382-.516 2.465-1.546 3.25-1.031.784-2.457 1.176-4.28 1.176zm-19.306-6.849c.145 1.598.633 2.758 1.462 3.479.83.722 2.06 1.082 3.689 1.082 2.301 0 4.112-.394 5.434-1.183v2.366c-1.529.737-3.381 1.105-5.559 1.105h-.093c-.929 0-1.781-.111-2.555-.334-.775-.224-1.536-.61-2.285-1.16-.749-.55-1.334-1.378-1.758-2.483-.423-1.105-.634-2.446-.634-4.024v-.23299999999999998c0-5.469 2.317-8.204 6.952-8.204.968 0 1.846.154 2.634.46.788.306 1.413.667 1.877 1.081.463.415.87.958 1.22 1.627s.6 1.238.749 1.705c.15.467.265 1.033.348 1.696.082.644.124 1.049.124 1.214v.685l-.061 1.121h-11.544zm9.173-3.253c-.088-.446-.265-1.02-.529-1.72-.265-.701-.742-1.284-1.431-1.751-.691-.467-1.544-.701-2.56-.701-1.577 0-2.721.41-3.432 1.23-.71.82-1.118 2.205-1.221 4.156h9.305c0-.363-.044-.768-.132-1.214zm-21.96 10.102c-2.12 0-3.759-.604-4.919-1.813-1.159-1.209-1.738-2.919-1.738-5.129v-9.215h2.299v9.318c0 1.616.351 2.799 1.055 3.55.702.75 1.804 1.126 3.303 1.126 1.478 0 2.574-.376 3.287-1.126.713-.751 1.07-1.934 1.07-3.55v-9.318h2.3v9.215c0 2.21-.58 3.92-1.74 5.129-1.159 1.209-2.798 1.813-4.917 1.813zm-13.285-.616c-1.21.411-2.512.616-3.908.616-.933 0-1.788-.111-2.566-.334-.778-.224-1.542-.61-2.294-1.16-.751-.55-1.339-1.378-1.765-2.483-.425-1.105-.637-2.446-.637-4.024 0-1.401.163-2.628.49-3.681.327-1.053.728-1.876 1.205-2.467.477-.592 1.045-1.069 1.703-1.433.658-.363 1.27-.596 1.835-.7.565-.103 1.143-.156 1.734-.156 1.151 0 2.152.143 3.002.428.851.286 1.488.615 1.913.989.425.373.77.82 1.035 1.339.264.519.422.947.474 1.284.052.337.078.667.078.988v17.061h-2.299v-6.267zm0-10.895c0-1.883-1.401-2.825-4.203-2.825-.589 0-1.117.067-1.581.202-.466.135-.954.404-1.466.807-.512.404-.91 1.051-1.194 1.941-.285.89-.427 2.003-.427 3.338 0 2.081.393 3.582 1.179 4.503.786.921 2.047 1.382 3.784 1.382 1.396 0 2.698-.264 3.908-.792v-8.556zm-25.706 4.662c.145 1.598.633 2.758 1.462 3.479.83.722 2.06 1.082 3.689 1.082 2.301 0 4.112-.394 5.434-1.183v2.366c-1.528.737-3.381 1.105-5.559 1.105h-.093c-.929 0-1.781-.111-2.555-.334-.775-.224-1.536-.61-2.285-1.16-.749-.55-1.334-1.378-1.757-2.483-.424-1.105-.635-2.446-.635-4.024v-.23299999999999998c0-5.469 2.317-8.204 6.952-8.204.968 0 1.846.154 2.634.46.788.306 1.413.667 1.877 1.081.463.415.87.958 1.22 1.627s.6 1.238.749 1.705c.15.467.266 1.033.348 1.696.082.644.124 1.049.124 1.214v.685l-.061 1.121h-11.544zm9.173-3.253c-.088-.446-.264-1.02-.529-1.72-.265-.701-.742-1.284-1.431-1.751-.69-.467-1.544-.701-2.56-.701-1.577 0-2.721.41-3.432 1.23-.71.82-1.117 2.205-1.221 4.156h9.306c0-.363-.045-.768-.133-1.214zm-16.352 9.853l-5.531-8.577h-5.406v8.577h-2.299v-21.263h7.799c2.309 0 4.085.527 5.328 1.58 1.243 1.053 1.864 2.586 1.864 4.6 0 .913-.145 1.743-.435 2.49-.29.747-.618 1.329-.986 1.744-.368.415-.805.776-1.313 1.081-.507.307-.921.509-1.243.607-.321.1-.621.179-.901.242l5.826 8.919h-2.703zm-2.913-11.106c.71-.244 1.225-.584 1.546-1.02.321-.436.538-.866.652-1.292.114-.425.171-.926.171-1.502s-.057-1.076-.171-1.502c-.114-.426-.331-.856-.652-1.292-.321-.436-.836-.776-1.546-1.02-.709-.243-1.592-.366-2.649-.366h-5.375v8.359h5.375c1.057 0 1.94-.121 2.649-.365zm-17.623.739c0-.446-.046-.843-.139-1.191-.093-.347-.274-.718-.543-1.113-.269-.394-.703-.698-1.302-.91-.6-.213-1.355-.319-2.264-.319-1.334 0-2.725.212-4.172.638v13.262h-2.299v-14.632c2.084-1.037 4.323-1.557 6.719-1.557 1.996 0 3.545.509 4.647 1.526 1.102 1.017 1.653 2.449 1.653 4.296v10.367h-2.3v-10.367zm-16.264 14.718c-.465.565-1.176 1.006-2.133 1.323-.957.316-2.113.475-3.468.475-1.48 0-2.987-.192-4.518-.576v-2.164c1.356.384 2.779.576 4.27.576 1.013 0 1.863-.091 2.55-.271.688-.182 1.187-.441 1.497-.777.31-.337.522-.67.636-1.002.113-.331.17-.73.17-1.195v-1.584c-1.188.386-2.429.58-3.721.58-.705 0-1.363-.06-1.975-.18-.612-.119-1.237-.355-1.874-.708-.638-.353-1.184-.811-1.641-1.372-.456-.561-.826-1.309-1.112-2.243-.285-.935-.427-2.021-.427-3.257 0-1.662.223-3.072.669-4.23.445-1.158 1.044-2.002 1.796-2.532.751-.53 1.467-.896 2.146-1.099.679-.202 1.392-.304 2.139-.304 1.355 0 2.493.19 3.413.569.921.379 1.568.866 1.94 1.463.372.597.623 1.113.753 1.549.129.435.194.866.194 1.292v11.985c0 .706-.101 1.355-.303 1.946-.202.592-.535 1.17-1.001 1.736zm-.996-15.761c0-1.784-1.333-2.677-4-2.677-.569 0-1.076.068-1.52.202-.445.135-.91.395-1.396.778-.486.384-.863 1.007-1.131 1.868-.27.862-.404 1.931-.404 3.207 0 1.193.127 2.177.38 2.95.253.773.625 1.346 1.116 1.72.491.373.985.623 1.481.747.497.125 1.081.187 1.753.187 1.271 0 2.512-.244 3.721-.732v-8.25zm-17.116-9.853h2.548v2.553h-2.548v-2.553zm-11.308 21.512c-2.313 0-4.407-.498-6.284-1.494v-2.491c1.68 1.131 3.717 1.697 6.113 1.697 3.598 0 5.402-1.126 5.413-3.378 0-.955-.292-1.756-.876-2.405-.585-.648-1.306-1.123-2.164-1.424l-2.807-.934c-1.014-.332-1.952-.669-2.813-1.012-.863-.342-1.587-.889-2.174-1.642-.587-.753-.88-1.683-.88-2.794 0-1.64.594-3.036 1.781-4.188 1.187-1.151 3.035-1.727 5.544-1.727 1.801 0 3.572.42 5.312 1.26v2.366c-1.574-.892-3.273-1.338-5.095-1.338-1.696 0-2.994.311-3.893.934-.9.622-1.35 1.52-1.35 2.693 0 .726.292 1.333.877 1.821.584.488 1.305.848 2.163 1.082.859.233 1.798.532 2.819.895 1.021.364 1.959.757 2.815 1.183.855.426 1.576 1.084 2.161 1.977.586.893.879 1.977.879 3.253 0 1.765-.664 3.15-1.991 4.156-1.326 1.007-3.177 1.51-5.55 1.51zm-29.625-10.735c-.916 1.588-6.306 3.636-6.306 3.636s-.35-5.369.565-6.957l8.286-14.379c.915-1.589 2.942-2.133 4.527-1.216s2.128 2.948 1.213 4.536l-8.285 14.38zm6.243-17.478c-.792-.458-1.806-.186-2.263.608l.001.001-8.285 14.379-.002-.001c-.457.794-1.002 4.127-1.002 4.127s3.415-1.672 3.872-2.466l-.001-.001.009-.016 8.267-14.348.009-.016.002.001c.458-.794.186-1.809-.607-2.268zm-25.522 30.113h24.948v-14.998h1.996v14.998c0 .978-1.02 2-1.996 2h-24.948c-.976 0-1.996-1.022-1.996-2v-24.997c0-.978 1.02-2 1.996-2h13.971v2h-13.971v24.997zm62.635-2.149h-2.299v-15.908h2.299v15.908z"></path></svg>
	