<svg xmlns="http://www.w3.org/2000/svg" width="1440" height="1024" viewBox="0 0 1440 1024">
  <defs>
    <linearGradient id="hero-bg-a" x1="0%" x2="100%" y1="100%" y2="100%">
      <stop offset="0%" stop-color="#77A2F8"/>
      <stop offset="100%" stop-color="#9867D0"/>
    </linearGradient>
    <linearGradient id="hero-bg-b" x1="50%" x2="50%" y1="3.012%" y2="100%">
      <stop offset="0%" stop-color="#FFF" stop-opacity=".5"/>
      <stop offset="100%" stop-color="#FFF"/>
    </linearGradient>
    <linearGradient id="hero-bg-c" x1="50%" x2="50%" y1="3.012%" y2="100%">
      <stop offset="0%" stop-color="#FFF" stop-opacity=".5"/>
      <stop offset="100%" stop-color="#FFF"/>
    </linearGradient>
    <linearGradient id="hero-bg-d" x1="50%" x2="50%" y1="3.012%" y2="100%">
      <stop offset="0%" stop-color="#FFF" stop-opacity=".5"/>
      <stop offset="100%" stop-color="#FFF"/>
    </linearGradient>
    <linearGradient id="hero-bg-e" x1="0%" x2="100%" y1="100%" y2="100%">
      <stop offset="0%" stop-color="#77A2F8"/>
      <stop offset="100%" stop-color="#9867D0"/>
    </linearGradient>
    <linearGradient id="hero-bg-f" x1="0%" x2="100%" y1="100%" y2="100%">
      <stop offset="0%" stop-color="#77A2F8"/>
      <stop offset="100%" stop-color="#9867D0"/>
    </linearGradient>
  </defs>
  <g fill="none" fill-rule="evenodd" transform="translate(-236)">
    <rect width="1440" height="1024" x="236" fill="url(#hero-bg-a)" fill-opacity=".6" fill-rule="nonzero"/>
    <path fill="url(#hero-bg-b)" fill-rule="nonzero" d="M437.021475,128.210536 C437.00721,127.896531 437,127.580686 437,127.263158 C437,115.926787 446.189945,106.736842 457.526316,106.736842 C459.55235,106.736842 461.509826,107.030376 463.358535,107.577236 C467.01733,93.9956081 479.420313,84 494.157895,84 C509.729901,84 522.695459,95.1595298 525.493467,109.917487 C528.668801,107.903216 532.435032,106.736842 536.473684,106.736842 C547.810055,106.736842 557,115.926787 557,127.263158 C557,137.8527 548.98102,146.569309 538.684211,147.671833 L538.684211,147.789474 L456.578947,147.789474 C445.765793,147.789474 437,139.02368 437,128.210526 L437.021474,128.210526 Z" opacity=".41" transform="matrix(-1 0 0 1 994 0)"/>
    <path fill="url(#hero-bg-c)" fill-rule="nonzero" d="M1398.11649,231.245283 C1398.03936,230.349884 1398,229.44369 1398,228.528302 C1398,211.272009 1411.98899,197.283019 1429.24528,197.283019 C1432.4884,197.283019 1435.61612,197.777122 1438.55726,198.694156 C1444.28574,178.662583 1462.73244,164 1484.60377,164 C1507.43107,164 1526.52783,179.972363 1531.32777,201.350819 C1535.87904,198.761784 1541.14419,197.283019 1546.75472,197.283019 C1564.01101,197.283019 1578,211.272009 1578,228.528302 C1578,244.16808 1566.50914,257.124024 1551.50943,259.414124 L1551.50943,259.773585 L1426.5283,259.773585 C1410.77256,259.773585 1398,247.001029 1398,231.245283 L1398.11649,231.245283 Z" opacity=".614" transform="matrix(-1 0 0 1 2976 0)"/>
    <path fill="url(#hero-bg-d)" fill-rule="nonzero" d="M289.048052,487.5 C289.016179,486.974009 289,486.443535 289,485.909091 C289,472.290251 299.506045,461.25 312.465909,461.25 C315.586301,461.25 318.56444,461.890024 321.287933,463.051964 C325.581036,446.900794 340.304137,435 357.806818,435 C375.683281,435 390.660176,447.414521 394.586405,464.092463 C397.854809,462.27758 401.580255,461.25 405.534091,461.25 C418.493955,461.25 429,472.290251 429,485.909091 C429,498.538005 419.965771,508.949571 408.318182,510.396437 L408.318182,510.568182 L312.068182,510.568182 C299.327977,510.568182 289,500.240205 289,487.5 L289.048052,487.5 Z" opacity=".41" transform="matrix(-1 0 0 1 718 0)"/>
    <path fill="url(#hero-bg-e)" stroke="#FFF" d="M65.3662752,906.571643 C235.143414,820.06857 574.697693,647.062425 574.697693,647.062425 L649.627806,658.790196 L755.679053,607.67 L799.303884,606.803744 L975.7736,521 L1204.65204,657.302013 L1238.83004,654.458917 L1689,961.824232 L1689,1294 L65.5568972,1294 C-68.6177241,1294 40.7130599,919.132691 65.3662752,906.571643 Z" opacity=".4"/>
    <path fill="url(#hero-bg-f)" stroke="#FFF" d="M357.608481,904.254788 L941.114847,607.062425 L1016.07262,618.790196 L1122.16301,567.67 L1165.80394,566.803744 L1342.3388,481 L1571.30172,617.302013 L1605.49234,614.458917 C1605.49234,614.458917 1651.83078,645.176809 1675,660.535755 C1674.7178,660.535759 1674.7178,1254 1674.7178,1254 L58,1254 L58,921.135669 L357.608481,904.254788 Z" opacity=".4"/>
  </g>
</svg>
