<svg xmlns="http://www.w3.org/2000/svg" width="436" height="405" viewBox="0 0 436 405">
  <defs>
    <filter id="hero-image-a" width="105.6%" height="106%" x="-2.8%" y="-3%" filterUnits="objectBoundingBox">
      <feOffset dy="2" in="SourceAlpha" result="shadowOffsetOuter1"/>
      <feGaussianBlur in="shadowOffsetOuter1" result="shadowBlurOuter1" stdDeviation="2"/>
      <feColorMatrix in="shadowBlurOuter1" result="shadowMatrixOuter1" values="0 0 0 0 0   0 0 0 0 0   0 0 0 0 0  0 0 0 0.5 0"/>
      <feMerge>
        <feMergeNode in="shadowMatrixOuter1"/>
        <feMergeNode in="SourceGraphic"/>
      </feMerge>
    </filter>
    <linearGradient id="hero-image-b" x1="103.868%" x2="82.654%" y1="77.846%" y2="100%">
      <stop offset="0%" stop-color="#4299D1"/>
      <stop offset="100%" stop-color="#1E7FCE"/>
    </linearGradient>
    <linearGradient id="hero-image-c" x1="0%" x2="102.772%" y1="50%" y2="50%">
      <stop offset="0%" stop-color="#C4EAEE"/>
      <stop offset="55.533%" stop-color="#30B6E6"/>
      <stop offset="60.742%" stop-color="#42C2DA"/>
      <stop offset="66.859%" stop-color="#85C4EA"/>
      <stop offset="100%" stop-color="#92D0D8"/>
    </linearGradient>
    <linearGradient id="hero-image-d" x1="24.62%" x2="83.393%" y1="8.585%" y2="74.722%">
      <stop offset="0%" stop-color="#EBFDFF"/>
      <stop offset="100%" stop-color="#A8F6FF"/>
    </linearGradient>
    <linearGradient id="hero-image-e" x1="0%" x2="94.491%" y1="0%" y2="93.705%">
      <stop offset="0%" stop-color="#7BD1F9"/>
      <stop offset="100%" stop-color="#45A4F1"/>
    </linearGradient>
    <linearGradient id="hero-image-f" x1="0%" x2="97.864%" y1="15.771%" y2="90.94%">
      <stop offset="0%" stop-color="#FFE2AD"/>
      <stop offset="89.896%" stop-color="#FFD982"/>
      <stop offset="100%" stop-color="#F3B875"/>
    </linearGradient>
    <linearGradient id="hero-image-g" x1="6.438%" x2="96.992%" y1="6.248%" y2="100%">
      <stop offset="0%" stop-color="#FFF8DE"/>
      <stop offset="100%" stop-color="#FFEA95"/>
    </linearGradient>
    <linearGradient id="hero-image-h" x1="105.324%" x2="-11.555%" y1="64.755%" y2="64.755%">
      <stop offset="0%" stop-color="#E3BF6D"/>
      <stop offset="28.952%" stop-color="#EEA433"/>
      <stop offset="100%" stop-color="#FEFFF7"/>
    </linearGradient>
    <linearGradient id="hero-image-i" x1="92.221%" x2="-11.555%" y1="82.803%" y2="64.755%">
      <stop offset="0%" stop-color="#68B9F3"/>
      <stop offset="28.952%" stop-color="#1874B1"/>
      <stop offset="100%" stop-color="#9BD8FF"/>
    </linearGradient>
    <linearGradient id="hero-image-j" x1="108.553%" x2="-11.555%" y1="64.755%" y2="64.755%">
      <stop offset="0%" stop-color="#6DB2E3"/>
      <stop offset="28.952%" stop-color="#1889D4"/>
      <stop offset="100%" stop-color="#A0FFFB"/>
    </linearGradient>
    <linearGradient id="hero-image-k" x1="105.362%" x2="-18.724%" y1="38.12%" y2="38.12%">
      <stop offset="0%" stop-color="#B7D6FF"/>
      <stop offset="26.802%" stop-color="#689CDB"/>
      <stop offset="100%" stop-color="#CCEFFF"/>
    </linearGradient>
    <linearGradient id="hero-image-l" x1="112.574%" x2="-13.559%" y1="64.755%" y2="64.755%">
      <stop offset="0%" stop-color="#FFE090"/>
      <stop offset="33.115%" stop-color="#DC943E"/>
      <stop offset="64.874%" stop-color="#FFDCA6"/>
      <stop offset="100%" stop-color="#FFF"/>
    </linearGradient>
    <linearGradient id="hero-image-m" x1="0%" y1="62.892%" y2="32.777%">
      <stop offset="0%" stop-color="#C3FFF9"/>
      <stop offset="68.487%" stop-color="#61AAE0"/>
      <stop offset="100%" stop-color="#61AAE0"/>
    </linearGradient>
    <linearGradient id="hero-image-n" x1="100%" x2="0%" y1="26.022%" y2="73.333%">
      <stop offset="0%" stop-color="#99D7FF"/>
      <stop offset="29.255%" stop-color="#27A8FF"/>
      <stop offset="100%" stop-color="#FFF"/>
    </linearGradient>
    <linearGradient id="hero-image-o" x1="127.538%" x2="20.935%" y1="-30.135%" y2="100%">
      <stop offset="0%" stop-color="#84C8FF"/>
      <stop offset="100%" stop-color="#A2EFFF"/>
    </linearGradient>
    <linearGradient id="hero-image-p" x1="100%" x2="-131.549%" y1="-4.245%" y2="103.039%">
      <stop offset="0%" stop-color="#84A2B8"/>
      <stop offset="16.601%" stop-color="#D2ECFF"/>
      <stop offset="79.102%" stop-color="#98CEFF"/>
      <stop offset="100%" stop-color="#6E96BA"/>
    </linearGradient>
    <linearGradient id="hero-image-q" x1="50%" x2="50%" y1="0%" y2="100%">
      <stop offset="0%" stop-color="#A3D9FF"/>
      <stop offset="100%" stop-color="#76BEFF"/>
    </linearGradient>
    <linearGradient id="hero-image-r" x1="4.278%" x2="103.749%" y1="45.218%" y2="78.868%">
      <stop offset="0%" stop-color="#FDDC98"/>
      <stop offset="63.096%" stop-color="#E6B88C"/>
      <stop offset="100%" stop-color="#F3CF6E"/>
    </linearGradient>
    <linearGradient id="hero-image-s" x1="21.764%" x2="85.474%" y1="15.023%" y2="80.379%">
      <stop offset="0%" stop-color="#FFECA1"/>
      <stop offset="100%" stop-color="#FFCD86"/>
    </linearGradient>
    <linearGradient id="hero-image-t" x1="50%" x2="50%" y1="3.358%" y2="99.661%">
      <stop offset="0%" stop-color="#8BC1ED"/>
      <stop offset="100%" stop-color="#518BBF"/>
    </linearGradient>
    <linearGradient id="hero-image-u" x1="29.743%" x2="49.846%" y1="102.201%" y2="44.217%">
      <stop offset="0%" stop-color="#3FA8EF"/>
      <stop offset="100%" stop-color="#63C2E4"/>
    </linearGradient>
    <linearGradient id="hero-image-v" x1="37.548%" x2="108.456%" y1="3.472%" y2="100%">
      <stop offset="0%" stop-color="#54AAE1"/>
      <stop offset="100%" stop-color="#1E7FCE"/>
    </linearGradient>
    <linearGradient id="hero-image-w" x1="0%" x2="82.331%" y1="42.102%" y2="74.28%">
      <stop offset="0%" stop-color="#6BBAEC"/>
      <stop offset="49.767%" stop-color="#419ADC"/>
      <stop offset="100%" stop-color="#3E9BE7"/>
    </linearGradient>
    <linearGradient id="hero-image-x" x1="6.438%" x2="96.992%" y1="6.248%" y2="100%">
      <stop offset="0%" stop-color="#FFEBA7"/>
      <stop offset="100%" stop-color="#FFD395"/>
    </linearGradient>
    <linearGradient id="hero-image-y" x1="24.62%" x2="76.816%" y1="8.585%" y2="78.611%">
      <stop offset="0%" stop-color="#EBFDFF"/>
      <stop offset="100%" stop-color="#A8F6FF"/>
    </linearGradient>
  </defs>
  <g fill="none" fill-rule="evenodd" filter="url(#hero-image-a)" transform="translate(4 2)">
    <g transform="translate(0 285)">
      <path fill="url(#hero-image-b)" d="M172.876601,54.2016418 L170.369186,54.2016418 L170.369186,56.0850876 C170.348834,56.073031 165.165513,53.0979822 154.819222,47.1599408 L85.1006409,6.74067639 C81.6336451,4.7533888 76.0167657,4.75368053 72.5518246,6.74125976 L63.404545,12.1156577 L156.821749,65.7102916 L156.821749,71.138069 L161.495485,68.3915109 L170.278189,63.2303389 C172.108115,62.1790862 172.970534,60.7845136 172.867502,59.4094845 L172.876601,54.2016418 Z"/>
      <path fill="url(#hero-image-c)" d="M63.4987712,12.2510021 L18.0573796,38.9546864 L2.59811864,47.8241202 L2.59782511,47.825287 C2.56670991,47.84308 2.53794304,47.8617481 2.50741492,47.8798329 L2.50741492,45.9963875 L0,45.9963875 L0,51.2042299 L0.00909972638,51.2042299 C-0.093932659,52.5795508 0.768486568,53.9741234 2.59811864,55.0242093 L2.59841219,55.0253761 L18.0573796,63.8942265 L87.77508,104.312907 L87.7768413,104.312907 C91.241782,106.300487 96.8583679,106.300779 100.323896,104.313491 L100.325657,104.313491 L115.786092,95.4434737 L156.915975,71.273705 L156.915975,65.8456362 L63.4987712,12.2510021 Z"/>
      <path fill="url(#hero-image-d)" d="M18.0573796,33.5829136 L2.59782511,42.4523474 L2.59753157,42.4535142 C-0.865941699,44.4416768 -0.865941699,47.6642738 2.59811865,49.6521446 L2.59841219,49.6536033 L18.0573796,58.5224537 L87.77508,98.9411349 L87.7768413,98.9411349 C91.2414885,100.928714 96.8583679,100.928714 100.323603,98.9414263 L100.325657,98.9417181 L115.786092,90.0719927 L156.915681,65.9016408 L58.8250341,9.62578738 L18.0573796,33.5829136 Z"/>
      <path fill="url(#hero-image-e)" d="M170.25588,50.7800025 L170.255587,50.7788357 L100.537887,10.3601547 L85.0777449,1.49042921 L85.0756902,1.49042921 C81.6104556,-0.496858347 75.9935762,-0.496858347 72.5289285,1.4907209 L72.5268738,1.4907209 L58.7079118,9.61167683 L156.798559,65.8878217 L156.798559,64.9208677 L156.798559,65.8878217 L170.255293,57.9800916 L170.255587,57.9789248 C173.719354,55.9907621 173.719647,52.7681651 170.25588,50.7800025"/>
      <path fill="url(#hero-image-f)" d="M10.5656629,43.3161526 L2.59782511,47.8871711 L2.59753157,47.8886293 C2.56670991,47.9064223 2.5376495,47.92509 2.50712138,47.9431748 L2.50712138,46.0597552 L0,46.0597552 L0,51.2675252 L0.00909972638,51.2675252 C-0.093932659,52.6428266 0.768486568,54.0370878 2.59811864,55.0871591 L2.59841219,55.0886178 L18.0573796,63.9573439 L87.77508,104.37546 L87.7768413,104.37546 C91.2414885,106.363012 96.8583679,106.363012 100.323603,104.375752 L100.325657,104.376043 L103.930323,102.307987 L103.930323,96.8799936 L10.5656629,43.3161526 Z"/>
      <path fill="url(#hero-image-g)" d="M5.83508945,40.5449831 L2.59793519,42.4021765 L2.59764166,42.4033434 C-0.866125154,44.391506 -0.865831612,47.614103 2.59822874,49.6022656 L2.59852227,49.6034324 L18.0574897,58.4722828 L87.7751901,98.8909641 L87.7769514,98.8909641 C91.2415986,100.878543 96.858478,100.878835 100.323713,98.8915473 L100.325767,98.8915473 L103.930433,96.8234615 L5.83508945,40.5449831 Z"/>
    </g>
    <g transform="scale(1 -1) rotate(-60 -230.844 -370.116)">
      <path fill="url(#hero-image-h)" d="M6.47640625,110.776602 L6.47640625,124.64834 C6.47640625,124.895135 6.63601226,125.141913 6.95522432,125.33018 C7.59364835,125.70676 8.62873732,125.70676 9.2671614,125.33018 C9.58637341,125.141913 9.74597942,124.895135 9.74597942,124.64834 L9.74597942,110.776602 L6.47640625,110.776602 Z"/>
      <path fill="url(#hero-image-i)" d="M16.2153527,101.689368 L8.7379251,100.867758 L8.74103579,100.772591 L8.30683664,100.820438 L7.47161896,100.728576 L7.47784031,100.911508 L-0.00256835598,101.733515 L5.55038497,119.409503 L5.57889956,119.409503 C5.65420395,119.721176 5.89230062,120.021614 6.2992813,120.26125 C7.29768009,120.84904 8.91640039,120.84904 9.91492883,120.26125 C10.3409624,120.010246 10.5835955,119.692758 10.6459387,119.365488 L10.6622698,119.365488 L16.2153527,101.689368 Z"/>
      <path fill="url(#hero-image-j)" d="M-0.00256835598,32.3529793 L-0.00256835598,101.348283 C-0.00256835598,102.575791 0.791280684,103.803219 2.37897876,104.73962 C5.55437491,106.612658 10.7027045,106.612658 13.8781007,104.73962 C15.4657988,103.803219 16.2596479,102.575791 16.2596479,101.348283 L16.2596479,32.3529793 L-0.00256835598,32.3529793 Z"/>
      <path fill="url(#hero-image-k)" d="M-0.00256835598,6.02247443 L-0.00256835598,44.9215802 C-0.00256835598,46.149088 0.791280684,47.3765166 2.37897876,48.3129167 C5.55437491,50.1859549 10.7027045,50.1859549 13.8781007,48.3129167 C15.4657988,47.3765166 16.2596479,46.149088 16.2596479,44.9215802 L16.2596479,6.02247443 L-0.00256835598,6.02247443 Z"/>
      <path fill="url(#hero-image-l)" d="M16.2596479,12.3455182 L16.2596479,18.9220948 C16.2596479,20.1496026 15.4657988,21.377031 13.8781007,22.3134311 C10.7027045,24.1864694 5.55437491,24.1864694 2.37897876,22.3134311 C0.791280684,21.377031 -0.00256835598,20.1496026 -0.00256835598,18.9220948 L-0.00256835598,12.3455182 C-0.00256835598,13.573026 0.791280684,14.8004544 2.37897876,15.7368545 C5.55437491,17.6098928 10.7027045,17.6098928 13.8781007,15.7368545 C15.4657988,14.8004544 16.2596479,13.573026 16.2596479,12.3455182 Z"/>
      <path fill="url(#hero-image-m)" d="M13.8781007,2.63322057 C10.7027045,0.761428111 5.55437491,0.761428111 2.37897876,2.63322057 C-0.796417396,4.50501301 -0.796417396,7.53987637 2.37897876,9.41166882 C5.55437491,11.2835406 10.7027045,11.2835406 13.8781007,9.41166882 C17.0534969,7.53987637 17.0534969,4.50501301 13.8781007,2.63322057"/>
      <path fill="url(#hero-image-n)" d="M14.0714665,3.5473603 L12.3717394,1.55187246 L11.8151224,2.08027471 C9.58532045,1.21400931 6.67247338,1.21381288 4.44235089,2.07955446 L3.8864391,1.55187246 L2.2193448,3.50899057 C0.846522806,5.00855293 1.23369285,6.92022976 3.38181658,8.18702011 C6.00295582,9.73267854 10.2526582,9.73267854 12.8737975,8.18702011 C15.0036494,6.93103353 15.4028724,5.04102971 14.0714665,3.5473603"/>
      <path fill="url(#hero-image-o)" d="M11.4588449,0.822945818 C9.60537812,-0.270002175 6.60040269,-0.270002175 4.74700002,0.822945818 C2.89353327,1.91589381 2.89353327,3.68797292 4.74700002,4.7809209 C6.60040269,5.8738689 9.60537812,5.8738689 11.4588449,4.7809209 C13.3122475,3.68797292 13.3122475,1.91589381 11.4588449,0.822945818"/>
      <path fill="url(#hero-image-p)" d="M13.7582899,61.8285867 L12.5434186,61.1219748 C12.2806029,60.9709004 11.9211563,60.9946955 11.5244999,61.2286152 C10.7300993,61.6969812 10.0853966,62.8312083 10.0762946,63.7708629 L10.0758366,88.3169304 C10.0758938,88.7888626 10.2381858,89.1204195 10.5005435,89.2749434 L11.7165024,89.9824324 L11.6992142,89.0553475 C12.4169053,88.5304462 12.9731631,87.4823381 12.9731631,86.6086325 L12.9731631,63.0286457 L13.2793712,62.9967235 L13.7582899,61.8285867 Z"/>
      <path fill="url(#hero-image-q)" d="M12.7241955,61.963889 C11.929795,62.432196 11.2851495,63.566482 11.2759902,64.5060781 L11.2756467,89.0521457 C11.2756467,89.9956593 11.9242993,90.3781394 12.72431,89.9063824 C13.5244351,89.4346258 14.1729733,88.2873609 14.1729733,87.3439057 L14.1729733,62.7981307 C14.1635849,61.8692919 13.5185961,61.4954649 12.7241955,61.963889 Z"/>
    </g>
    <g transform="translate(189)">
      <polygon fill="#ECC37E" points="67.515 230.714 67.515 230.882 52.189 232.479 39.556 245.332 44.559 254.739 69.118 238.765 69.118 230.714"/>
      <polygon fill="#EEC490" points="69.118 238.403 151.581 287.047 154.059 276.989 69.118 220.359"/>
      <path fill="url(#hero-image-r)" fill-rule="nonzero" d="M131.133287,284.16803 L122.484867,289.130274 L45.9343485,244.598899 L66.9447132,231.861622 L68.9212719,230.699593 L77.584551,235.669221 L145.634491,275.25607 L143.874867,276.290378 L131.133287,284.16803 Z M174.041814,269.770765 L174.041814,271.024707 C174.028194,271.016586 170.577543,269.035946 163.689861,265.082785 L82.8181043,218.037619 C80.5102,216.714649 76.7706735,216.715018 74.4642548,218.037988 L58.6365535,227.063272 L37.4244843,239.918671 L32.4375827,242.780185 L27.1330795,245.823311 L27.0725309,244.606651 L25.403544,244.606651 L25.403544,252.514323 C25.3411381,253.429771 25.9150497,254.358139 27.1330795,255.057275 L37.4244843,260.962283 L118.295498,308.007449 C120.603403,309.330789 124.342929,309.330789 126.649719,308.007819 L132.199388,304.824053 L136.942981,302.10281 L155.284378,290.933976 L168.134054,283.65801 L173.980894,280.222128 C175.199296,279.522253 175.773207,278.593885 175.704487,277.678437 L175.710801,269.770765 L174.041814,269.770765 Z"/>
      <path fill="url(#hero-image-s)" fill-rule="nonzero" d="M131.131907,284.294966 L122.483228,289.27416 L45.93042,244.590678 L68.9180308,230.644267 L77.5815689,235.630869 L145.633545,275.352936 L131.131907,284.294966 Z M173.981539,267.444302 L173.981168,267.443562 L93.1077346,220.238073 L82.8152792,214.313265 L82.8141645,214.313265 C80.5073053,212.985776 76.7676673,212.985776 74.4611795,214.313635 L74.4596939,214.313265 L55.5211594,225.204303 L37.420301,236.269056 L29.2835143,240.952677 L27.1285884,242.193494 L27.1282169,242.194235 C24.822472,243.522464 24.822472,245.674819 27.1285884,247.003048 L27.1289598,247.003789 L37.420301,252.928227 L118.293734,300.134086 L118.29522,300.134086 C120.601708,301.461945 124.341346,301.461945 126.648205,300.134457 L126.649319,300.134457 L129.049048,298.75289 L136.941775,294.209648 L155.283721,283.002664 L173.980796,272.253857 L173.981168,272.253116 C176.287284,270.925257 176.287284,268.772532 173.981539,267.444302 Z"/>
      <path fill="url(#hero-image-t)" d="M126.994774,180.101001 L126.991822,180.099525 C126.933159,174.17065 122.778044,167.013724 117.658124,164.058878 C115.101669,162.58293 112.785031,162.432421 111.09893,163.381587 L111.09893,163.381218 L111.093765,163.384169 C111.093027,163.384907 111.09192,163.385276 111.091182,163.385645 L103.261324,167.844106 L106.34796,175.214991 L108.321474,175.416407 L108.321474,247.534212 L119.3671,253.910188 L126.994774,249.507061 L126.994774,180.101001 Z"/>
      <path fill="url(#hero-image-u)" d="M119.083624,184.282077 L119.080662,184.280229 C119.022169,178.338408 114.852894,171.165409 109.715527,168.203927 C104.57816,165.241705 100.407034,167.606085 100.348171,173.479876 L100.34669,173.479137 L100.34669,243.106508 L119.083624,253.910188 L119.083624,184.282077 Z"/>
      <path fill="url(#hero-image-v)" d="M216.687642,111.283518 L29.2527078,3.02633928 C23.0674186,-0.507653208 17.4770725,-0.842341538 13.4317238,1.47939402 L6.16911992,5.62299991 L6.16911992,12.1083212 L4.99651568,18.3139533 L6.87144803,17.511492 L6.87144803,130.072184 C6.87012299,144.210789 16.8158773,161.385307 29.1122535,168.528399 L211.596837,273.971034 L206.568308,277.867386 L215.97881,280.290934 C220.383329,282.811387 223.567033,283.509074 225.529924,282.383995 C227.03275,281.522613 229.286991,280.230539 232.292645,278.507774 C236.430746,276.220298 238.998675,271.203926 239,264.022621 L239,149.7819 C238.998675,135.616941 229.017144,118.401575 216.687642,111.283518 Z"/>
      <path fill="url(#hero-image-e)" d="M231.920279,153.560366 C231.920279,139.39053 221.946324,122.169237 209.629137,115.048729 L209.592069,114.960415 L22.3613062,6.75427712 L22.3493915,6.76218586 C10.005728,-0.326686355 0,5.42824413 0,19.620488 L0,133.843863 L0,133.845181 C-0.00132385923,147.987336 9.93556352,165.167768 22.2196533,172.314637 L22.3149712,172.476767 L209.564268,280.694768 C221.910579,287.790231 231.920279,282.035301 231.921603,267.84042 L231.921603,153.561684 L231.920279,153.560366 Z"/>
      <path fill="url(#hero-image-d)" d="M212.435079,271.841047 L29.0980867,166.155045 L27.2380798,164.978619 C17.4367204,159.291474 9.15896978,145.001466 9.16027875,133.775367 L9.16027875,21.1270002 C9.16027875,18.1865838 9.7296686,13.2546917 13.5399994,13.2546917 C15.1761772,13.2546917 17.2848831,13.9462485 19.4799792,15.20327 L23.7968707,17.6770156 L202.340517,120.59679 L204.629856,121.982503 C214.457395,127.65015 222.760015,141.954456 222.760015,153.218253 L222.761324,265.918617 C222.761324,268.844734 222.14743,271.284682 221.079333,272.614499 C220.610732,273.196863 219.924846,273.792225 218.381603,273.792225 C216.742808,273.792225 214.631484,273.099369 212.435079,271.841047 Z"/>
    </g>
    <g transform="translate(27 177)">
      <path fill="url(#hero-image-w)" d="M119,21.7096679 L116.654033,21.7096679 L116.654033,23.4744207 C116.634991,23.463124 111.785413,20.6755598 102.1053,15.1117281 L87.6403319,6.80096401 C84.3965692,4.9389134 79.1413494,4.9389134 75.8995094,6.80151066 L61.4339922,15.1117281 L2.84691479,49.2351093 L2.7620513,47.5228316 L0.416083916,47.5228316 L0.416083916,52.4024814 C0.328474036,53.6908571 1.13508914,54.997545 2.84718943,55.9814556 L17.3110588,64.2927665 L31.7749282,72.6029839 C35.0184162,74.465581 40.2733612,74.465581 43.5157507,72.6035302 L102.1053,38.4796025 L116.568894,30.1696584 C118.280995,29.1843813 119.087884,27.8776935 118.991486,26.5893174 L119,21.7096679 Z"/>
      <path fill="url(#hero-image-e)" d="M102.105413,9.70709218 L87.6404239,1.3963323 C84.3966566,-0.465717399 79.1414293,-0.46544409 75.8995843,1.39687891 L61.4337716,9.70709218 L2.84688398,43.8307296 C-0.394136997,45.6946928 -0.394136997,48.7142029 2.84688398,50.5770727 L17.3107743,58.8881058 L31.7749392,67.1985927 C35.0181573,69.0609157 40.2733845,69.0611889 43.5155039,67.1991393 L102.105413,33.074955 L116.569028,24.765015 C119.810049,22.9010521 119.810324,19.8815416 116.569578,18.018672 L102.105413,9.70709218 Z"/>
      <g transform="translate(18.308 5.82)">
        <path fill="url(#hero-image-x)" d="M9.5890049,45.8729783 C7.39537741,44.5741756 3.83880784,44.5741756 1.64518036,45.8729783 C-0.548393454,47.1717806 -0.548393454,49.2776165 1.64518036,50.5764187 C3.83880784,51.8752763 7.39537741,51.8752763 9.5890049,50.5764187 C11.782686,49.2776165 11.782686,47.1717806 9.5890049,45.8729783"/>
        <path fill="url(#hero-image-y)" d="M25.9039082,49.9315894 L0.161832266,35.2215825 L47.1156359,8.37422384 L60.5220523,0.714912986 C61.3053336,0.267394708 62.532338,0 63.8040215,0 C65.0757046,0 66.3027091,0.267394708 67.0870118,0.714912986 L92.8216839,15.4208609 L80.4806628,22.4728255 L32.4594215,49.937171 C31.6758848,50.3816449 30.4539864,50.6465026 29.1879199,50.6465026 C27.9154707,50.6465026 26.6877002,50.3791077 25.9039082,49.9315894 Z"/>
      </g>
    </g>
  </g>
</svg>
