<svg xmlns="http://www.w3.org/2000/svg" xmlns:xlink="http://www.w3.org/1999/xlink" width="144" height="78" viewBox="0 0 144 78">
  <defs>
    <rect id="gdpr-b" width="105" height="39" x=".5" y=".5" rx="4"/>
    <filter id="gdpr-a" width="159%" height="259%" x="-29.5%" y="-74.4%" filterUnits="objectBoundingBox">
      <feOffset dy="2" in="SourceAlpha" result="shadowOffsetOuter1"/>
      <feGaussianBlur in="shadowOffsetOuter1" result="shadowBlurOuter1" stdDeviation="10"/>
      <feColorMatrix in="shadowBlurOuter1" values="0 0 0 0 0   0 0 0 0 0   0 0 0 0 0  0 0 0 0.2 0"/>
    </filter>
  </defs>
  <g fill="none" fill-rule="evenodd" transform="translate(19 17)">
    <g fill-rule="nonzero">
      <use fill="#000" filter="url(#gdpr-a)" xlink:href="#gdpr-b"/>
      <use fill="#FFF" xlink:href="#gdpr-b"/>
    </g>
    <g fill="#EA6C00" fill-rule="nonzero" transform="translate(6 6)">
      <polygon points="14 0 14.454 1.468 15.922 1.468 14.734 2.375 15.188 3.843 14 2.935 12.813 3.843 13.266 2.375 12.078 1.468 13.546 1.468"/>
      <polygon points="14 24.157 14.454 25.625 15.922 25.625 14.734 26.532 15.188 28 14 27.093 12.813 28 13.266 26.532 12.078 25.625 13.546 25.625"/>
      <polygon points="20.039 2.196 20.493 3.664 21.961 3.664 20.773 4.572 21.227 6.039 20.039 5.132 18.852 6.039 19.305 4.572 18.118 3.664 19.586 3.664"/>
      <polygon points="24.981 6.359 25.434 7.827 26.902 7.827 25.714 8.735 26.168 10.203 24.981 9.295 23.793 10.203 24.247 8.735 23.059 7.827 24.527 7.827"/>
      <polygon points="24.981 18.118 25.434 19.586 26.902 19.586 25.714 20.493 26.168 21.961 24.981 21.054 23.793 21.961 24.247 20.493 23.059 19.586 24.527 19.586"/>
      <polygon points="3.02 6.359 3.473 7.827 4.941 7.827 3.754 8.735 4.207 10.203 3.02 9.295 1.832 10.203 2.286 8.735 1.098 7.827 2.566 7.827"/>
      <polygon points="26.079 12.078 26.532 13.546 28 13.546 26.812 14.453 27.266 15.922 26.079 15.015 24.891 15.922 25.345 14.453 24.157 13.546 25.625 13.546"/>
      <polygon points="1.922 12.078 2.375 13.546 3.843 13.546 2.655 14.453 3.109 15.922 1.922 15.015 .734 15.922 1.188 14.453 0 13.546 1.468 13.546"/>
      <polygon points="3.02 18.118 3.473 19.586 4.941 19.586 3.754 20.493 4.207 21.961 3.02 21.054 1.832 21.961 2.286 20.493 1.098 19.586 2.566 19.586"/>
      <polygon points="21.137 23.059 21.591 24.527 23.059 24.527 21.871 25.434 22.325 26.902 21.137 25.995 19.949 26.902 20.403 25.434 19.216 24.527 20.684 24.527"/>
      <polygon points="7.961 2.196 8.414 3.664 9.882 3.664 8.695 4.572 9.149 6.039 7.961 5.132 6.773 6.039 7.227 4.572 6.039 3.664 7.507 3.664"/>
      <polygon points="6.863 23.059 7.316 24.527 8.784 24.527 7.597 25.434 8.05 26.902 6.863 25.995 5.675 26.902 6.129 25.434 4.941 24.527 6.409 24.527"/>
    </g>
    <path fill="#2B3945" fill-rule="nonzero" d="M23.1428571 19.1363636L22.7142857 19.1363636 22.7142857 17.8068182C22.7142857 16.259375 21.4964286 15 20 15 18.5035714 15 17.2857143 16.259375 17.2857143 17.8068182L17.2857143 19.1363636 16.8571429 19.1363636C16.3839286 19.1363636 16 19.5333807 16 20.0227273L16 23.5681818C16 24.0575284 16.3839286 24.4545455 16.8571429 24.4545455L23.1428571 24.4545455C23.6160714 24.4545455 24 24.0575284 24 23.5681818L24 20.0227273C24 19.5333807 23.6160714 19.1363636 23.1428571 19.1363636zM21.2857143 19.1363636L18.7142857 19.1363636 18.7142857 17.8068182C18.7142857 17.0737216 19.2910714 16.4772727 20 16.4772727 20.7089286 16.4772727 21.2857143 17.0737216 21.2857143 17.8068182L21.2857143 19.1363636zM43 15.5957447C43 18.4197965 45.1632047 20.1914894 47.8204748 20.1914894 49.5029674 20.1914894 50.7982196 19.5121184 51.7596439 18.4597595L51.7596439 14.9829787 47.4599407 14.9829787 47.4599407 16.8878816 49.5029674 16.8878816 49.5029674 17.6338575C49.1424332 17.9269195 48.5148368 18.1666975 47.8204748 18.1666975 46.3649852 18.1666975 45.3367953 17.0477336 45.3367953 15.5957447 45.3367953 14.1437558 46.3649852 13.0247919 47.8204748 13.0247919 48.6617211 13.0247919 49.34273 13.4910268 49.7032641 14.0771508L51.6261128 13.0647549C50.9718101 11.9591119 49.7700297 11 47.8204748 11 45.1632047 11 43 12.7716929 43 15.5957447zM53.1083086 20.0316374L53.1083086 11.146531 56.847181 11.146531C59.6513353 11.146531 61.6676558 12.8249769 61.6676558 15.5824237 61.6676558 18.3398705 59.6513353 20.0316374 56.8605341 20.0316374L53.1083086 20.0316374zM55.4050445 18.0334875L56.847181 18.0334875C58.4094955 18.0334875 59.3175074 16.9012026 59.3175074 15.5824237 59.3175074 14.2103608 58.4896142 13.1446809 56.8605341 13.1446809L55.4050445 13.1446809 55.4050445 18.0334875zM62.8160237 20.0316374L62.8160237 11.146531 67.2759644 11.146531C69.2789318 11.146531 70.3738872 12.4919519 70.3738872 14.1037928 70.3738872 15.7023127 69.2789318 17.0210916 67.2759644 17.0210916L65.1127596 17.0210916 65.1127596 20.0316374 62.8160237 20.0316374zM68.037092 14.0904718C68.037092 13.4777058 67.5830861 13.0780759 66.9688427 13.0780759L65.1127596 13.0780759 65.1127596 15.0762257 66.9688427 15.0762257C67.5830861 15.0762257 68.037092 14.6899167 68.037092 14.0904718zM76.3694362 20.0316374L74.8738872 17.0210916 73.6988131 17.0210916 73.6988131 20.0316374 71.4020772 20.0316374 71.4020772 11.146531 75.8620178 11.146531C77.8382789 11.146531 78.9599407 12.4519889 78.9599407 14.1037928 78.9599407 15.6490287 78.0118694 16.4749306 77.1839763 16.7679926L79 20.0316374 76.3694362 20.0316374zM76.6231454 14.0771508C76.6231454 13.4643848 76.115727 13.0780759 75.5148368 13.0780759L73.6988131 13.0780759 73.6988131 15.0762257 75.5148368 15.0762257C76.115727 15.0762257 76.6231454 14.6899167 76.6231454 14.0771508z"/>
    <text fill="#2B3945" font-family="HelveticaNeue, Helvetica Neue" font-size="8" transform="translate(43 23)">
      <tspan x="0" y="8">COMPLIANT</tspan>
    </text>
  </g>
</svg>
